<?xml version="1.0" standalone="no"?>
<!DOCTYPE svg PUBLIC "-//W3C//DTD SVG 20010904//EN"
 "http://www.w3.org/TR/2001/REC-SVG-20010904/DTD/svg10.dtd">
<svg version="1.0" xmlns="http://www.w3.org/2000/svg"
 width="512.000000pt" height="512.000000pt" viewBox="0 0 512.000000 512.000000"
 preserveAspectRatio="xMidYMid meet">
<metadata>
Created by potrace 1.14, written by Peter Selinger 2001-2017
</metadata>
<g transform="translate(0.000000,512.000000) scale(0.100000,-0.100000)"
fill="#000000" stroke="none">
<path d="M2350 4933 c-457 -44 -890 -214 -1244 -487 -89 -68 -88 -68 -212
-187 -102 -99 -118 -116 -202 -222 -210 -265 -365 -583 -446 -917 -26 -111
-27 -113 -47 -255 -20 -139 -17 -522 4 -630 3 -11 8 -42 11 -70 40 -284 193
-665 377 -936 107 -159 296 -367 429 -475 19 -16 37 -31 40 -34 9 -10 124 -95
170 -125 25 -17 47 -32 50 -35 3 -3 15 -10 26 -17 12 -7 62 -34 111 -61 240
-134 509 -223 803 -268 127 -20 474 -26 590 -11 36 5 76 10 90 12 153 16 426
95 611 176 491 214 912 611 1154 1087 100 198 175 402 209 572 3 14 8 36 11
50 6 27 21 131 33 220 4 30 7 147 7 260 -1 213 -14 337 -57 525 -79 347 -276
739 -502 995 -269 306 -512 484 -896 658 -126 57 -429 140 -575 157 -27 4 -61
9 -75 11 -30 6 -420 12 -470 7z"/>
</g>
</svg>
